<svg width="37" height="29" viewBox="0 0 37 29" fill="none" xmlns="http://www.w3.org/2000/svg">
<path d="M2 10.4091C2 5.43458 6.25681 1.54756 11.1625 2.04255L17.6716 2.69931C18.3333 2.76608 19 2.76608 19.6617 2.69931L26.1708 2.04255C31.0765 1.54756 35.3333 5.43458 35.3333 10.4091V20.4982C35.3333 26.5408 27.5068 28.8311 24.3026 23.7263C22.0187 20.0877 16.8005 19.9661 14.3527 23.4945L13.8789 24.1774C10.2179 29.4545 2 26.8407 2 20.3992V10.4091Z" stroke="white" stroke-width="3"/>
<ellipse cx="28.6666" cy="10.3671" rx="2.16667" ry="2.18615" fill="white"/>
<ellipse cx="25.3335" cy="15.4123" rx="2" ry="2.01799" fill="white"/>
<path d="M12 16.2531L12 9.52643" stroke="white" stroke-width="3" stroke-linecap="round" stroke-linejoin="round"/>
<path d="M8.66665 12.8897H15.3333" stroke="white" stroke-width="3" stroke-linecap="round" stroke-linejoin="round"/>
</svg>
