<svg width="48" height="36" viewBox="0 0 48 36" fill="none" xmlns="http://www.w3.org/2000/svg">
<path d="M3.27273 36H10.9091V17.4591L0 9.2793V32.7281C0 34.5359 1.46455 36 3.27273 36Z" fill="#4285F4"/>
<path d="M37.0909 36H44.7273C46.5355 36 48 34.5359 48 32.7281V9.2793L37.0909 17.4591V36Z" fill="#34A853"/>
<path d="M37.0909 3.28075V17.4591L48 9.27928V4.91671C48 0.873152 43.3827 -1.43629 40.1455 0.990395L37.0909 3.28075Z" fill="#FBBC04"/>
<path fill-rule="evenodd" clip-rule="evenodd" d="M11 19.1774V4.99902L24.0909 14.8148L37.1818 4.99902V19.1774L24.0909 28.9932L11 19.1774Z" fill="#EA4335"/>
<path d="M0 4.91671V9.27928L10.9091 17.4591V3.28075L7.85455 0.990395C4.61727 -1.43629 0 0.873152 0 4.91671Z" fill="#C5221F"/>
</svg>
